<svg xmlns="http://www.w3.org/2000/svg" width="32" height="32" viewBox="0 0 32 32"><defs><style>.a{fill:#2c3e50;}.b{fill:#1abc9c;opacity:0;}</style></defs><g transform="translate(3 3)"><path class="a" d="M19.869,28.938H5.977A2.98,2.98,0,0,1,3,25.961V21.992a.992.992,0,0,1,1.985,0v3.969a.993.993,0,0,0,.992.992H19.869a.993.993,0,0,0,.992-.992V21.992a.992.992,0,0,1,1.985,0v3.969A2.98,2.98,0,0,1,19.869,28.938Z" transform="translate(0 -6.093)"/><path class="a" d="M19.915,9.946a.989.989,0,0,1-.7-.291L14.954,5.4l-4.26,4.26a.992.992,0,0,1-1.4-1.4l4.961-4.961a.992.992,0,0,1,1.4,0l4.961,4.961a.992.992,0,0,1-.7,1.694Z" transform="translate(-2.031 0)"/><path class="a" d="M17.492,16.892A.992.992,0,0,1,16.5,15.9V3.992a.992.992,0,1,1,1.985,0V15.9A.992.992,0,0,1,17.492,16.892Z" transform="translate(-4.569 0)"/></g><circle class="b" cx="16" cy="16" r="16"/></svg>